<svg xmlns="http://www.w3.org/2000/svg" width="200" height="218.519" viewBox="0 0 200 218.519">
  <g id="icon-solidwork" transform="translate(-580 -35)">
    <rect id="Rectangle_6" data-name="Rectangle 6" width="200" height="218.519" rx="20" transform="translate(580 35)" fill="#ffbfbf"/>
    <g id="Group_9" data-name="Group 9" transform="translate(0 -5.989)">
      <path id="_3DS_corporate-logo_solidworks" data-name="3DS_corporate-logo_solidworks" d="M113.869,51.08c.8-4.868,4.1-8.949,10.235-8.949s8.093,4.081,7.293,8.949-4.1,8.946-10.23,8.946S113.079,55.953,113.869,51.08Zm13.734,0c-.649,3.985-2.479,6.005-5.959,6.005s-4.637-2.02-3.98-6.005,2.473-6.006,5.959-6.006S128.257,47.1,127.6,51.08Zm-26.119-1.129a4.105,4.105,0,0,1-1.74-4.078,4.336,4.336,0,0,1,3.977-3.743h8.8v1.828c-.125.827-.587,1.656-1.405,1.656h-6.662c-.662,0-1.042.174-1.1.6-.034.25.081.426.551.763l5.829,4.142a4,4,0,0,1,1.587,4.2c-.326,2.053-1.944,3.982-5.22,3.982H98.633V56.916c.127-.775.5-1.1,1.179-1.1h6.381c1.136,0,1.472-.265,1.573-.9.068-.463-.21-.734-.792-1.131Zm42.724,6.55h-7.289l2.513-13.78a.5.5,0,0,0-.494-.591h-3.208L132.6,59.294h12.079l.311-1.722C145.124,56.812,144.871,56.5,144.208,56.5Zm97.126-14.265h.846a.723.723,0,0,1,.467.134.587.587,0,0,1,.211.464.847.847,0,0,1-.246.622l-8.837,7.5,6.618,7.192a1.164,1.164,0,0,1,.255.621.606.606,0,0,1-.223.474.822.822,0,0,1-.467.13h-.836l-6.99-7.6-1.4,7.592h-1.883l3.191-17.158h.846a.876.876,0,0,1,.543.186.7.7,0,0,1,.25.73l-1.169,6.671Zm-75.2-.106H156.9l-.047.275c-.213,1.168-.118,2.511,1.727,2.511h6.836c2.709,0,3.745,1.963,3.079,5.642-.614,3.366-2.436,5.943-5.193,5.943H159.6l1.768-9.651h-3.157a.761.761,0,0,0-.766.583l-2.168,11.855h7.235c5.345,0,9.07-2.506,10.217-8.857C173.625,45.561,171.587,42.131,166.139,42.131Zm49.867.074h4.414c2.6,0,4.9.04,6.228,1.565a4.426,4.426,0,0,1,.6,3.474c-.265,1.221-1.417,4.275-5.746,4.665l3.645,6.237a1.584,1.584,0,0,1,.244.621.582.582,0,0,1-.217.474.773.773,0,0,1-.468.13h-.954L219.48,52.01l-3.44-.02L214.7,59.37h-1.887Zm6.37,7.8a17.2,17.2,0,0,1-4.049.332c-.306,0-.682-.008-1.073-.012h0l-.909-.01,1.127-6.247.809-.006c1.242-.011,3.215-.029,3.992.012a7.911,7.911,0,0,1,.958.09,3.159,3.159,0,0,1,1.681.652C226.392,46.222,225.065,49.278,222.376,50Zm22.718-3.791c.017-1.283.364-4,3.673-4.007h7.087v1.3a.587.587,0,0,1-.418.515l.011.047-.013-.047c-.053.015-6.358.024-6.365.024a1.922,1.922,0,0,0-2.095,1.9A2.6,2.6,0,0,0,247.9,47.7l4.573,4.5a4.716,4.716,0,0,1,1.642,3.152v.007c-.014,1.28-.367,3.994-3.674,4.007h-7.008V58.083l-.022-.011h.022a.586.586,0,0,1,.413-.52c.038-.014,2.765-.018,4.618-.021h0c.956,0,1.68,0,1.681,0a1.917,1.917,0,0,0,2.09-1.9,2.6,2.6,0,0,0-.855-1.839l-4.823-4.727A4.094,4.094,0,0,1,245.094,46.212ZM153.3,42.131H150.09l-3.138,17.157h3.814l3.03-16.572A.5.5,0,0,0,153.3,42.131Zm52.443.033v.009c5.155.6,6.69,5.195,5.65,9.592-1.157,4.877-4.674,8.728-10.284,8.3-5.224-.607-6.714-5.21-5.609-9.6C196.711,45.586,200.216,41.736,205.744,42.163Zm3.81,9.452c-1.189,5-4.579,6.861-7.767,6.689l-.313-.016c-3.087-.4-5.364-2.776-4.152-7.679,1.241-5,4.839-6.857,7.989-6.686C208.438,44.244,210.719,46.713,209.554,51.616Zm-14.283-9.258a.669.669,0,0,1,.231.525.741.741,0,0,1-.079.34l-.01.023L188.8,58.135a1.91,1.91,0,0,1-1.776,1.228h-1.239L183.87,50l-4.61,8.21a2.943,2.943,0,0,1-.737.827,1.8,1.8,0,0,1-1.11.323h-1.458V42.205h1.122a.785.785,0,0,1,.525.166.728.728,0,0,1,.243.562l-.053,14.284,5.257-9.16h1.118a1.288,1.288,0,0,1,1.346,1.157l1.738,8.086,6.66-15.094h.867A.756.756,0,0,1,195.271,42.358Z" transform="translate(502.757 163.143)" fill="#da291c" fill-rule="evenodd"/>
      <path id="_3DS_corporate-logo_solidworks-2" data-name="3DS_corporate-logo_solidworks" d="M81.813,16.634C79.525,9.786,67.244,7.718,56.866,8.178c-10.3.455-19.7,2.921-19.117,4.81.614,1.969,5.806,1.836,8.97,1.755.542-.014,1.025-.026,1.415-.026,9.814,0,19.265,1.8,21.523,4.394,3.52,4.049-2.542,14.037-21.186,27.654-3.577,2.613-6.246,5.018-6.837,6.2a1.086,1.086,0,0,0,.811,1.668c1.026.134,3.487-.406,7.546-2.375C66.556,44.221,85.562,27.857,81.813,16.634ZM101.2,45.2l-.285-.046c-9.162-1.5-25.553-2.087-31.156,6.5C65.623,58,72.9,66.567,80.045,74.992l1.012,1.194c.635.75,1.276,1.5,1.911,2.237h0c5.337,6.219,10.275,11.973,7.9,15.489-1.864,2.769-12.42,3.149-18.37,3.363-.959.035-1.8.065-2.463.1-1.593.085-3.377.149-5.158.212h0c-4.718.168-9.415.335-10.476.907-1.312.707-2.043,2.9,2.874,3.78a139.564,139.564,0,0,0,23.265,2.14c10.355,0,21.232-1.7,23.592-9.715,1.711-5.813-3.479-12-8.756-18.3h-.007c-.566-.675-1.133-1.352-1.693-2.029-1.434-1.738-2.873-3.362-4.234-4.9h0c-4.641-5.241-8.378-9.46-7.961-13.658.415-4.216,8.694-4.461,22.426-4.7,2.865-.053,8.549-.19,7.453-2.447C110.4,46.705,106.287,46.034,101.2,45.2ZM33.673,59.335c8.625-.45,19.1.9,24.987,4.934a8.965,8.965,0,0,1,3.792,9.924c-3.4,12-16.073,26.528-44.244,37.688-8.957,3.549-16,4.907-17.479,3.954-1.393-.9,1.982-7.089,3.774-10.378h0c.253-.464.474-.87.646-1.195a211.35,211.35,0,0,1,15.593-24.4c.191-.265.392-.549.6-.844h0c2-2.822,4.8-6.757,7.348-6.406,2.525.346-.433,5.5-2.377,8.77-3.268,5.494-12.27,20.756-9.3,21.667,6.565,2.018,37.366-18.981,32.824-30.678-2.105-5.427-15.479-5.945-23.9-5.945-.665,0-1.466.024-2.339.051h0c-4.158.127-9.937.3-10.319-1.869C12.78,62.185,25.991,59.742,33.673,59.335Z" transform="translate(624.048 69.143)" fill="#da291c" fill-rule="evenodd"/>
    </g>
  </g>
</svg>
