<svg xmlns="http://www.w3.org/2000/svg" width="200" height="218.519" viewBox="0 0 200 218.519">
  <g id="icon-sketchup" transform="translate(-580 -35)">
    <rect id="Rectangle_6" data-name="Rectangle 6" width="200" height="218.519" rx="20" transform="translate(580 35)" fill="#9ed8ff"/>
    <g id="SketchUp-Horizontal-RGB" transform="translate(647.329 71.628)">
      <g id="Group_7" data-name="Group 7" transform="translate(-177.582 104)">
        <path id="Path_4" data-name="Path 4" d="M133.73,37.608l3.529-1.854a7.635,7.635,0,0,0,7.267,4.595c3.207,0,5.379-1.035,5.379-3.419,0-2.282-1.638-3.351-5.986-4.632-5.1-1.5-9.193-2.885-9.193-7.912,0-4.488,3.67-7.445,9.015-7.445,5.2,0,8.268,2.566,9.872,5.664l-3.241,2.244A7.293,7.293,0,0,0,143.708,21c-2.923,0-4.6,1.069-4.6,2.995,0,2.46,1.888,3.279,6.2,4.56,4.989,1.46,8.981,3.1,8.981,8.052,0,4.31-3.67,7.7-9.94,7.7C139.113,44.307,135.406,41.6,133.73,37.608Z" transform="translate(0)" fill="#363545"/>
        <path id="Path_5" data-name="Path 5" d="M192.86,44.626V18.26h4.382V33.973l7.161-8.268h4.811L203.05,32.62l6.7,12.01h-4.6l-4.883-8.765-3.029,3.313V44.63H192.86Z" transform="translate(-36.714 -0.82)" fill="#363545"/>
        <path id="Path_6" data-name="Path 6" d="M236.76,46.8c0-7.2,5.095-9.834,9.015-9.834,4.242,0,8.3,2.529,8.3,10.228v1.035H241.142c.178,3.419,2.282,4.917,5.061,4.917a6.855,6.855,0,0,0,5.311-2.21l2.316,2.282a10.214,10.214,0,0,1-7.946,3.419C241.142,56.637,236.76,53.749,236.76,46.8Zm13.291-1.854c-.25-2.885-1.676-4.42-4.31-4.42-2.138,0-4.1,1.213-4.526,4.42Z" transform="translate(-63.972 -12.437)" fill="#363545"/>
        <path id="Path_7" data-name="Path 7" d="M289.569,41.072V30.594H286.29V27.1h3.279V20.51h4.382V27.1h4.883v3.491h-4.883v9.371c0,2.032.607,2.851,2.779,2.851a7.074,7.074,0,0,0,1.888-.25v3.457a21.713,21.713,0,0,1-3.207.25C290.6,46.273,289.569,44.491,289.569,41.072Z" transform="translate(-94.726 -2.217)" fill="#363545"/>
        <path id="Path_8" data-name="Path 8" d="M323.89,46.8c0-7.233,4.883-9.834,9.087-9.834,4.7,0,6.7,2.6,7.84,5.523l-3.708,1.319a4.137,4.137,0,0,0-4.2-3.173c-2.494,0-4.6,1.638-4.6,6.164,0,4.026,1.638,6.236,4.526,6.236,1.994,0,3.385-.607,4.42-3.279l3.635,1.319c-1.353,3.029-3.6,5.557-8.158,5.557C328.344,56.637,323.89,53.714,323.89,46.8Z" transform="translate(-118.072 -12.437)" fill="#363545"/>
        <path id="Path_9" data-name="Path 9" d="M375.68,44.626V18.26h4.42V28.272a9.386,9.386,0,0,1,6.911-2.923c3.313,0,5.451,1.96,5.451,5.7V44.626h-4.416V32.154c0-2.1-.891-3.063-2.817-3.063s-3.529,1-5.133,2.46V44.63H375.68Z" transform="translate(-150.229 -0.82)" fill="#363545"/>
        <path id="Path_10" data-name="Path 10" d="M428.79,35V18.26h4.454V34.614c0,4.026,1.748,6.414,5.808,6.414,4.026,0,5.773-2.316,5.773-6.38V18.26h4.382V34.97c0,5.986-3.385,10.084-10.19,10.084C431.747,45.054,428.79,40.994,428.79,35Z" transform="translate(-183.205 -0.82)" fill="#363545"/>
        <path id="Path_11" data-name="Path 11" d="M490.26,63.364V37.316h4.382v2.494a7.641,7.641,0,0,1,6.024-2.851c4.31,0,7.483,3.241,7.483,9.8s-3.241,9.762-8.09,9.762a7.212,7.212,0,0,1-5.417-2.388V63.36H490.26ZM503.767,46.8c0-3.992-1.71-6.092-4.526-6.092a6.375,6.375,0,0,0-4.6,2.388v7.589a5.769,5.769,0,0,0,4.454,2.35C502.414,53.03,503.767,51,503.767,46.8Z" transform="translate(-221.373 -12.431)" fill="#363545"/>
      </g>
      <g id="Group_8" data-name="Group 8" transform="translate(-17.424 -10)">
        <path id="Path_12" data-name="Path 12" d="M100.1,24.02,64.69,3.61A31.025,31.025,0,0,0,50.13.33c-9.32,0-14.72,3.38-14.72,3.38L2.61,22.48l49.9,28.68v57.96L85.35,90.37A30.6,30.6,0,0,0,95.68,79.43a34.706,34.706,0,0,0,4.42-13.34V24.02ZM46.7,33.46s7.32-1.35,13.51,2.22,9.84,5.67,9.84,5.67.01,4.97.01,12.4c0,5.95-5.04,12.12-5.04,12.12l.01-21.83ZM75.72,81.34,65.03,87.47V81.72l8.32-4.76a22.121,22.121,0,0,0,9.23-17.05l-.03-25.86L59.86,20.99s-3.45-2.26-9.65-2.26-9.58,2.09-9.58,2.09L32.66,25.4l-5.03-2.91L38.64,16.2s4.31-2.39,11.53-2.39A28.985,28.985,0,0,1,61.96,16.4L87.58,31.2l-.03,28.22C87.73,63.76,85.71,74.36,75.72,81.34Z" fill="#005f9e"/>
        <path id="Path_13" data-name="Path 13" d="M.09,41.25,35.07,61.32l-.03,5.98L15.14,55.89,2.62,63.01l32.4,18.67.02,5.76L.33,67.47C.42,69.81,2.54,77.02,6.6,82.6a28.127,28.127,0,0,0,8.82,8.05L47.5,109.12V54.04L.12,26.83Z" fill="#005f9e"/>
      </g>
    </g>
  </g>
</svg>
