<svg xmlns="http://www.w3.org/2000/svg" width="200" height="218.519" viewBox="0 0 200 218.519">
  <g id="icon-tekla" transform="translate(-580 -35)">
    <rect id="Rectangle_6" data-name="Rectangle 6" width="200" height="218.519" rx="20" transform="translate(580 35)" fill="#c2e7ff"/>
    <g id="logo" transform="translate(617.905 64.494)">
      <g id="Group_10" data-name="Group 10" transform="translate(-130.692 114.147)">
        <path id="Path_14" data-name="Path 14" d="M11.242,33.853V5.558H.9V.3H27.247V5.558H16.91v28.3ZM24.82,21.862C24.82,12.7,31.3,9.349,36.291,9.349c5.4,0,10.564,3.217,10.564,13.024V23.69H30.4c.227,4.341,2.894,6.271,6.44,6.271a8.719,8.719,0,0,0,6.753-2.812l2.947,2.894a12.981,12.981,0,0,1-10.13,4.341C30.4,34.35,24.82,30.679,24.82,21.862ZM41.732,19.5c-.318-3.671-2.132-5.62-5.484-5.62-2.721,0-5.214,1.539-5.759,5.62Zm9.112,14.35V.3H56.42V20.294L65.537,9.8h6.121l-7.843,8.769,8.523,15.281H66.487L60.279,22.7,56.42,26.917v6.936Zm24.552,0V.3H81.02V33.853Zm9.4-5.8c0-5.214,4.443-8.683,15.686-9.975v-.728c0-2.412-1.269-3.444-3.946-3.444a13.049,13.049,0,0,0-8.113,3.266L85.7,13.661A17.236,17.236,0,0,1,97.31,9.32c6.44,0,8.683,3.082,8.683,8.683v9.956c0,2.894.178,4.669.68,5.894h-5.644a8.719,8.719,0,0,1-.545-3.082A11.579,11.579,0,0,1,91.6,34.215C87.7,34.215,84.8,32.039,84.8,28.05Zm15.686-.883V21.862c-6.666.907-10.2,2.537-10.2,5.166,0,1.929,1.317,2.894,3.377,2.894A9.619,9.619,0,0,0,100.484,27.168Z" transform="translate(139 9)" fill="#363545"/>
      </g>
      <g id="Group_11" data-name="Group 11" transform="translate(-2 2)">
        <path id="Path_16" data-name="Path 16" d="M24.74,0,78.12,30.824l-8.2,30.623h38.9L125.289,0Z" transform="translate(2.9)" fill="#005f9e"/>
        <path id="Path_17" data-name="Path 17" d="M68.016,35.623,14.971,5,0,60.861H61.246ZM8.178,72.033H58.8L52.129,97.4Z" transform="translate(0 0.586)" fill="#005f9e"/>
      </g>
    </g>
  </g>
</svg>
